<?xml version="1.0" standalone="no"?>
<!DOCTYPE svg PUBLIC "-//W3C//DTD SVG 20010904//EN"
 "http://www.w3.org/TR/2001/REC-SVG-20010904/DTD/svg10.dtd">
<svg version="1.0" xmlns="http://www.w3.org/2000/svg"
 width="1200.000000pt" height="576.000000pt" viewBox="0 0 1200.000000 576.000000"
 preserveAspectRatio="xMidYMid meet">
<metadata>
Created by potrace 1.15, written by Peter Selinger 2001-2017
</metadata>
<g transform="translate(0.000000,576.000000) scale(0.100000,-0.100000)"
fill="#000000" stroke="none">
<path d="M3943 5738 c-11 -13 -33 -48 -48 -78 -15 -30 -51 -91 -80 -135 -80
-124 -252 -469 -281 -568 -15 -48 -59 -154 -98 -235 -83 -170 -86 -200 -28
-266 33 -38 87 -135 79 -142 -3 -3 -17 6 -33 19 -35 28 -123 87 -130 87 -7 0
-43 -43 -44 -51 0 -3 21 -20 46 -38 63 -46 156 -139 152 -152 -2 -6 -24 7 -48
28 -60 51 -95 73 -119 73 -39 0 -31 -21 18 -52 28 -17 51 -32 51 -33 0 -1 -62
12 -137 28 -76 16 -165 31 -198 34 -33 2 -70 6 -83 9 -41 9 -20 34 47 57 67
23 91 46 49 48 -20 1 -19 2 10 15 32 14 36 42 3 29 -24 -10 -112 -23 -106 -16
4 3 34 13 68 22 61 16 62 16 33 28 l-28 11 41 28 c74 50 71 34 61 363 -5 162
-14 316 -20 343 -5 26 -14 95 -20 152 -5 57 -17 133 -27 169 -16 59 -20 65
-43 65 -37 0 -81 -52 -190 -228 -55 -89 -170 -390 -200 -523 -10 -46 -26 -111
-36 -144 -17 -58 -17 -62 1 -99 10 -22 32 -46 48 -55 50 -28 57 -35 48 -50 -7
-11 -18 -9 -57 12 -67 36 -101 48 -119 41 -21 -8 -9 -23 31 -40 33 -14 34 -15
19 -38 l-15 -23 56 -6 c75 -8 89 -23 30 -31 -59 -9 -59 -26 0 -26 58 0 55 -21
-4 -34 -25 -5 -42 -14 -42 -23 0 -11 10 -13 48 -8 l47 7 -20 -20 c-11 -12 -50
-34 -87 -51 l-68 -30 0 24 c0 27 -34 55 -67 55 -15 0 -23 6 -23 18 -1 37 -43
109 -93 157 -31 30 -70 83 -96 130 -52 98 -64 111 -123 141 -58 30 -74 53 -83
124 -6 44 -45 155 -112 318 -7 16 -38 15 -52 -2 -6 -7 -17 -51 -23 -97 -13
-92 -22 -114 -33 -78 -4 13 -18 48 -32 77 -24 51 -46 66 -56 38 -15 -39 -28
-181 -23 -252 19 -262 19 -272 -2 -306 -26 -42 -40 -145 -30 -223 5 -33 5
-105 2 -161 -6 -106 7 -176 47 -256 18 -35 18 -37 -2 -62 -22 -28 -59 -35 -59
-11 0 27 -29 16 -46 -17 -9 -18 -24 -42 -34 -53 -15 -17 -84 -144 -197 -365
-20 -39 -40 -99 -50 -150 -34 -184 -43 -197 -154 -230 -172 -50 -209 -85 -209
-193 0 -32 -9 -76 -23 -112 l-24 -60 -57 3 c-50 3 -57 1 -54 -13 2 -10 25 -26
55 -37 39 -14 55 -26 59 -44 10 -38 0 -49 -57 -61 -74 -15 -189 -69 -189 -87
0 -27 15 -25 113 15 92 37 127 46 127 33 0 -35 -28 -97 -53 -121 l-32 -28 35
-5 c33 -5 35 -8 57 -79 12 -41 21 -76 19 -78 -2 -2 -27 -11 -57 -21 -50 -16
-54 -20 -57 -50 -5 -47 -53 -125 -120 -191 -31 -31 -68 -71 -82 -88 -74 -94
-101 -123 -166 -180 -39 -34 -78 -65 -88 -69 -10 -4 -15 -13 -11 -22 3 -9 -12
-33 -41 -64 -34 -36 -45 -55 -41 -70 4 -15 -5 -33 -29 -61 -18 -22 -34 -51
-34 -65 0 -13 -8 -36 -19 -50 -10 -15 -21 -39 -25 -55 -3 -15 -24 -51 -46 -80
-42 -54 -57 -92 -66 -167 -3 -25 -17 -66 -30 -92 -21 -39 -26 -65 -28 -143 -2
-52 1 -95 5 -95 10 0 29 66 29 100 0 14 7 38 15 54 8 15 15 35 15 43 0 8 14
33 31 54 20 25 28 45 25 57 -5 15 2 21 36 32 24 8 52 20 63 27 38 25 62 11
131 -75 30 -37 53 -41 80 -11 17 19 19 35 16 182 -4 190 -11 214 -62 209 -18
-2 -57 -19 -86 -37 l-53 -34 11 32 c6 18 25 47 42 66 22 24 27 35 18 38 -10 4
0 20 31 52 45 47 65 81 46 81 -19 0 110 147 173 198 35 27 81 66 102 85 22 19
70 51 107 70 77 41 231 85 237 68 7 -21 47 -35 117 -42 92 -9 172 -44 255
-113 37 -30 85 -65 106 -78 22 -12 50 -30 63 -40 24 -18 61 -24 61 -10 0 17
-27 40 -85 75 -33 20 -91 60 -128 90 -65 52 -179 107 -222 107 -27 0 -93 24
-107 38 -25 25 -192 5 -268 -31 -91 -43 -100 -47 -100 -38 0 4 18 20 39 34 22
15 60 56 86 92 26 36 50 65 54 65 4 0 13 16 21 35 11 28 22 37 51 45 l37 10
-6 48 c-3 26 -13 66 -23 89 -29 67 -32 104 -15 186 9 42 16 107 16 144 0 54 6
79 28 123 24 47 27 60 19 94 -13 52 8 116 37 116 23 -1 49 -14 88 -45 32 -26
48 -56 48 -90 0 -40 34 -29 38 12 4 43 -20 86 -68 120 -43 31 -47 38 -25 47 8
3 15 0 15 -6 0 -7 14 -8 40 -4 23 4 40 2 40 -3 0 -6 19 -11 43 -13 37 -3 42
-6 39 -25 -2 -17 3 -24 21 -28 15 -4 24 -13 23 -23 -1 -11 8 -18 27 -20 26 -3
37 11 17 23 -5 3 -10 13 -10 21 0 25 -44 83 -72 95 -16 6 -28 17 -28 24 0 16
49 57 60 50 4 -3 13 2 20 10 6 7 18 11 25 8 9 -3 16 5 20 24 4 15 11 43 17 61
15 50 -6 67 -27 21 l-15 -34 6 39 c6 34 5 38 -10 33 -19 -8 -19 -11 -5 53 6
28 54 137 106 241 82 164 97 188 107 173 11 -15 14 -13 26 17 18 47 32 63 40
49 11 -18 36 -2 69 46 26 35 38 44 62 44 19 0 29 -5 29 -15 0 -26 21 -17 64
27 66 68 129 118 149 118 10 0 53 18 95 39 243 125 527 200 754 201 79 0 315
-27 393 -45 28 -6 47 -51 29 -66 -25 -20 -4 -29 72 -29 51 0 82 -5 98 -16 15
-9 26 -11 30 -5 4 5 12 70 18 143 12 149 11 153 -68 274 -19 28 -34 60 -34 71
0 11 20 61 45 112 25 51 45 99 45 106 0 8 11 38 24 67 13 29 36 94 52 143 35
111 126 292 268 535 120 205 123 210 141 210 24 0 66 -216 85 -447 5 -56 13
-128 19 -160 12 -67 34 -381 27 -391 -2 -4 -7 -77 -10 -162 -4 -85 -9 -170
-12 -188 -7 -33 -45 -72 -73 -72 -9 -1 -52 -11 -96 -24 -102 -30 -135 -59
-135 -121 0 -24 -11 -74 -24 -112 -37 -107 -40 -123 -17 -123 10 0 24 7 32 16
17 21 45 12 120 -36 33 -21 81 -46 107 -56 68 -24 172 -72 172 -79 0 -3 -12
-10 -26 -15 -14 -6 -23 -14 -19 -19 3 -6 38 -28 78 -50 40 -22 82 -50 94 -63
l22 -23 -37 0 c-53 0 -54 -17 -3 -35 26 -9 68 -38 105 -73 33 -32 51 -52 40
-46 -24 14 -54 6 -54 -14 0 -7 12 -20 28 -29 15 -9 43 -33 61 -52 27 -28 32
-39 23 -48 -18 -18 -14 -34 12 -46 13 -6 45 -41 71 -77 43 -60 46 -69 35 -90
-11 -20 -8 -28 27 -73 41 -51 52 -75 73 -152 6 -25 29 -91 51 -147 21 -56 39
-106 39 -112 0 -5 15 -45 34 -88 18 -43 43 -123 56 -178 29 -132 26 -125 50
-125 16 0 20 5 16 18 -3 9 -15 59 -27 110 -11 52 -48 164 -81 250 -33 87 -77
210 -98 275 -21 64 -48 130 -59 146 -12 16 -21 42 -21 57 0 16 -23 67 -54 118
-93 158 -110 191 -108 204 2 7 -11 29 -28 49 -17 19 -37 47 -43 62 -7 14 -17
32 -24 39 -7 7 -13 20 -13 28 0 8 -29 43 -65 79 -36 35 -65 72 -65 82 0 32
-114 116 -188 139 -69 21 -152 60 -187 88 -19 15 -18 16 23 10 38 -6 42 -5 42
14 0 17 -8 22 -45 27 -24 4 -52 13 -62 21 -16 12 -14 13 17 8 19 -3 50 -10 68
-16 33 -10 92 -3 92 11 0 5 -38 18 -85 31 -47 13 -85 26 -85 30 0 14 94 -2
160 -27 90 -34 120 -39 120 -20 0 17 -39 47 -85 65 -16 7 -70 16 -119 22 -49
5 -90 11 -93 13 -7 7 157 16 187 10 23 -4 30 -2 30 10 0 20 -30 27 -120 28
l-75 0 60 28 c33 15 77 30 97 34 51 8 84 34 103 82 14 33 17 91 18 375 1 300
-1 350 -21 475 -12 77 -22 165 -22 196 0 69 -32 245 -58 319 -17 51 -21 55
-53 58 -26 2 -40 -3 -56 -20z m-903 -265 c6 -27 14 -73 16 -103 7 -95 23 -262
34 -350 6 -47 10 -130 8 -185 -1 -55 1 -134 5 -175 9 -84 -1 -117 -43 -136
-126 -58 -139 -69 -121 -103 7 -12 5 -20 -8 -28 -13 -8 -18 -25 -19 -63 0 -29
-3 -54 -6 -57 -2 -3 -39 -9 -81 -15 -63 -8 -79 -8 -86 3 -8 13 -2 156 7 170 2
4 -1 28 -8 54 -9 34 -21 51 -45 66 -18 12 -38 29 -43 39 -16 30 -12 85 11 137
11 26 29 87 40 135 17 79 52 184 111 336 32 82 188 322 209 322 4 0 12 -21 19
-47z m-1104 -458 c15 -38 31 -75 36 -81 4 -6 12 -44 17 -84 8 -65 14 -77 47
-111 21 -22 43 -39 49 -39 19 0 93 -69 101 -93 12 -41 87 -152 124 -184 22
-19 47 -56 64 -96 21 -50 34 -68 57 -77 16 -7 29 -16 29 -21 0 -18 -69 -57
-155 -88 -231 -83 -396 -172 -447 -241 -27 -37 -32 -37 -65 -2 -55 58 -68 105
-73 267 -5 141 -4 151 15 167 27 22 29 113 3 132 -24 17 -22 33 6 83 24 41 24
45 15 150 -17 181 -21 301 -12 318 8 13 16 3 40 -52 30 -67 30 -70 25 -195 -3
-88 -1 -128 6 -128 21 0 27 27 39 170 10 134 15 177 29 269 7 42 13 34 50 -64z
m-1543 -3817 c3 -18 9 -89 12 -158 l6 -125 -38 59 -37 58 -51 -4 c-27 -2 -76
-16 -108 -31 -58 -26 -58 -26 -51 -4 14 47 35 75 90 123 51 44 149 111 165
113 4 1 9 -14 12 -31z"/>
<path d="M1800 4478 c-15 -24 -18 -42 -14 -68 10 -55 20 -67 66 -74 38 -6 45
-4 66 19 15 18 22 39 22 69 0 55 -30 86 -83 86 -31 0 -40 -5 -57 -32z"/>
<path d="M1950 3282 c-51 -14 -89 -46 -114 -96 -14 -28 -26 -60 -26 -72 0 -11
-7 -46 -15 -78 -13 -47 -13 -70 -4 -119 14 -77 28 -105 75 -142 30 -23 51 -30
97 -33 97 -7 179 24 263 101 28 26 59 47 67 47 26 0 32 22 10 39 -14 12 -23
38 -31 90 -6 44 -25 102 -46 147 -32 68 -40 77 -83 96 -49 21 -150 32 -193 20z
m126 -47 c28 -8 60 -25 71 -37 29 -31 79 -161 87 -227 7 -53 7 -54 -37 -96
-60 -57 -139 -95 -199 -95 -66 0 -125 26 -144 62 -29 57 -17 245 22 319 20 39
81 76 145 88 3 1 28 -6 55 -14z"/>
<path d="M1880 3068 c-22 -37 -26 -103 -8 -143 15 -33 60 -35 82 -3 19 27 21
113 3 148 -19 39 -53 38 -77 -2z"/>
<path d="M1924 2486 c-9 -23 2 -45 28 -55 13 -4 102 -11 198 -15 212 -8 569
-47 703 -76 91 -20 137 -20 137 -1 0 26 -47 37 -310 77 -263 40 -364 52 -545
64 -93 6 -178 13 -188 16 -10 3 -20 -1 -23 -10z"/>
<path d="M1683 2393 c-22 -8 -15 -36 7 -30 11 3 41 -1 67 -8 l48 -13 -57 -1
c-32 -1 -58 -5 -58 -11 0 -14 35 -30 67 -30 16 0 82 -11 148 -25 147 -30 148
-30 140 -5 -5 15 -2 20 12 20 27 0 42 -13 40 -34 -2 -15 11 -22 68 -38 39 -10
147 -42 240 -70 463 -138 603 -160 581 -91 -9 30 -72 56 -196 83 -30 6 -100
28 -155 47 -55 19 -172 50 -260 69 -173 37 -475 106 -567 129 -58 15 -102 18
-125 8z"/>
<path d="M8982 2370 c-18 -4 -35 -9 -37 -11 -3 -4 35 -159 41 -167 3 -5 69 9
83 17 10 7 8 25 -9 90 -12 44 -27 81 -34 80 -6 -1 -26 -5 -44 -9z"/>
<path d="M8830 2363 c-49 -8 -49 -8 -29 -73 10 -34 19 -66 19 -71 0 -5 -140
-9 -335 -9 l-335 0 0 -65 0 -65 330 0 330 0 0 -23 c0 -47 -41 -184 -77 -257
-26 -54 -56 -94 -107 -145 -90 -89 -176 -133 -343 -175 l-43 -11 24 -47 c44
-86 43 -85 106 -66 355 104 548 361 585 777 6 66 5 77 -8 77 -11 0 -20 15 -27
43 -33 126 -29 120 -90 110z"/>
<path d="M6053 2349 c-18 -5 -33 -12 -33 -15 0 -3 12 -44 26 -91 24 -76 29
-84 48 -79 12 4 33 9 48 12 32 7 31 13 -6 119 -22 64 -31 69 -83 54z"/>
<path d="M7972 2349 c-20 -6 -32 -15 -29 -22 2 -7 15 -46 28 -87 13 -41 24
-76 25 -78 5 -8 94 22 94 32 0 6 -12 46 -27 89 -28 82 -30 83 -91 66z"/>
<path d="M10365 2275 c-34 -104 -86 -206 -141 -278 l-45 -58 36 -50 c20 -27
40 -49 44 -49 11 0 114 146 140 198 12 23 28 42 36 42 13 0 15 -53 15 -395 l0
-395 65 0 65 0 0 125 0 125 160 0 160 0 0 60 0 60 -160 0 -160 0 0 75 0 75
160 0 160 0 0 60 0 60 -160 0 -160 0 0 75 0 75 170 0 170 0 0 60 0 60 -220 0
c-121 0 -220 2 -220 5 0 3 7 32 17 65 9 33 13 63 9 67 -4 4 -31 10 -60 13
l-54 6 -27 -81z"/>
<path d="M5912 2337 c-37 -9 -43 -13 -38 -31 4 -12 15 -52 25 -91 l19 -70 43
2 c23 1 46 6 51 11 9 9 -33 168 -48 181 -5 4 -28 3 -52 -2z"/>
<path d="M7837 2337 c-39 -8 -47 -13 -42 -26 4 -9 16 -51 28 -94 l21 -79 40 7
c23 3 45 10 49 14 8 8 -25 151 -41 176 -5 8 -21 8 -55 2z"/>
<path d="M10135 2319 c-29 -135 -105 -290 -185 -382 l-42 -48 22 -52 c12 -29
25 -56 29 -60 4 -4 26 13 49 37 l42 46 0 -285 0 -285 60 0 60 0 0 381 0 381
34 92 c36 94 61 184 55 190 -2 2 -29 7 -60 11 l-57 7 -7 -33z"/>
<path d="M11110 2115 l0 -205 365 0 365 0 0 205 0 205 -365 0 -365 0 0 -205z
m610 0 l0 -95 -250 0 -250 0 0 95 0 95 250 0 250 0 0 -95z"/>
<path d="M4634 2202 c-59 -123 -145 -225 -245 -290 l-59 -39 41 -51 c37 -45
44 -50 63 -40 52 27 148 114 202 183 l59 75 178 0 c115 0 177 -4 177 -10 0
-38 -98 -260 -115 -260 -2 0 -32 21 -67 48 -35 26 -89 61 -120 77 l-58 30 -47
-49 c-27 -27 -43 -50 -36 -53 28 -10 136 -82 183 -120 l50 -41 -45 -40 c-90
-79 -246 -156 -357 -177 -21 -4 -38 -9 -38 -12 0 -18 68 -113 81 -113 8 0 48
11 88 25 248 84 433 244 541 468 42 89 83 220 95 305 l7 52 -221 0 -220 0 26
56 c14 30 23 58 20 61 -8 7 -78 23 -107 23 -22 0 -31 -14 -76 -108z"/>
<path d="M6720 2220 l0 -90 -260 0 -260 0 0 -70 0 -70 221 0 220 0 -23 -41
c-59 -105 -188 -240 -386 -405 l-25 -21 34 -56 c18 -31 36 -57 39 -57 3 0 42
29 85 64 107 85 251 236 305 319 l45 68 3 -265 2 -266 65 0 65 0 0 330 0 330
115 0 115 0 0 70 0 70 -115 0 -115 0 0 90 0 90 -65 0 -65 0 0 -90z"/>
<path d="M9708 2003 c-5 -266 -7 -292 -27 -345 -14 -36 -37 -70 -65 -96 -63
-58 -131 -80 -332 -110 l-52 -7 20 -64 19 -63 67 7 c102 10 229 42 284 72 27
15 74 53 103 85 96 104 115 195 115 564 l0 244 -64 0 -64 0 -4 -287z"/>
<path d="M5332 2217 c-12 -29 -22 -57 -22 -62 0 -6 30 -21 68 -33 37 -13 104
-41 148 -62 l82 -38 27 65 c15 35 26 65 24 67 -24 22 -262 116 -293 116 -7 0
-22 -24 -34 -53z"/>
<path d="M7255 2214 c-14 -31 -25 -59 -25 -63 0 -3 26 -14 58 -24 31 -11 99
-39 150 -63 l93 -43 20 47 c43 97 46 86 -39 122 -100 42 -204 80 -220 80 -7 0
-23 -25 -37 -56z"/>
<path d="M9180 1960 l0 -310 65 0 65 0 0 310 0 310 -65 0 -65 0 0 -310z"/>
<path d="M3460 2185 l0 -65 270 0 c198 0 270 -3 270 -12 0 -28 -106 -221 -164
-299 -106 -141 -225 -243 -369 -320 l-67 -35 40 -57 41 -57 42 21 c90 46 196
126 285 216 51 51 96 93 101 93 10 0 211 -206 270 -277 24 -29 47 -53 50 -53
3 0 28 25 55 56 l49 56 -94 94 c-52 52 -131 127 -176 167 l-82 71 25 41 c70
114 142 284 168 398 l6 27 -360 0 -360 0 0 -65z"/>
<path d="M5971 2038 c-55 -172 -154 -332 -250 -402 -94 -69 -229 -117 -374
-132 -55 -6 -67 -10 -63 -23 3 -9 10 -42 17 -73 l12 -57 46 6 c100 13 241 55
330 99 182 90 307 251 405 523 l26 71 -60 30 c-33 16 -61 30 -63 30 -2 0 -13
-33 -26 -72z"/>
<path d="M7917 2102 c-2 -4 -14 -38 -27 -77 -12 -38 -45 -115 -73 -170 -108
-212 -282 -324 -543 -351 -43 -5 -64 -11 -64 -20 0 -24 22 -119 29 -127 4 -4
45 0 92 8 309 57 483 184 616 450 40 79 99 233 92 238 -33 20 -119 55 -122 49z"/>
<path d="M1887 2093 c-13 -12 -7 -40 11 -56 18 -17 75 -42 272 -122 58 -23
175 -72 262 -109 193 -82 243 -87 164 -18 -85 74 -221 150 -406 226 -185 77
-281 102 -303 79z"/>
<path d="M5246 1959 c-15 -34 -25 -62 -24 -63 2 -1 37 -15 78 -31 41 -15 110
-45 153 -67 42 -21 77 -36 77 -34 0 2 11 33 25 70 l25 66 -48 24 c-50 25 -235
96 -250 96 -5 0 -21 -28 -36 -61z"/>
<path d="M7171 1964 c-11 -31 -21 -59 -21 -64 0 -4 28 -17 63 -30 34 -12 102
-42 150 -66 78 -39 88 -42 94 -26 3 9 14 39 25 65 10 26 18 50 18 52 0 13
-268 125 -299 125 -5 0 -18 -25 -30 -56z"/>
<path d="M11010 1560 l0 -270 55 0 c52 0 55 1 55 25 l0 25 100 0 c93 0 100 -1
100 -20 0 -18 7 -20 55 -20 l55 0 0 265 0 265 -210 0 -210 0 0 -270z m310 30
l0 -130 -100 0 -100 0 0 130 0 130 100 0 100 0 0 -130z"/>
<path d="M11500 1560 l0 -270 55 0 c52 0 55 1 55 25 l0 25 105 0 105 0 0 -25
c0 -24 3 -25 55 -25 l55 0 0 270 0 270 -215 0 -215 0 0 -270z m320 30 l0 -130
-105 0 -105 0 0 130 0 130 105 0 105 0 0 -130z"/>
<path d="M1570 1570 c0 -11 4 -20 9 -20 5 0 34 -20 65 -44 31 -24 70 -49 85
-56 16 -6 34 -23 42 -38 13 -26 43 -63 147 -183 67 -77 108 -154 115 -215 4
-32 17 -69 36 -98 16 -26 33 -66 36 -89 9 -51 20 -74 53 -110 22 -23 27 -38
28 -95 4 -124 13 -214 24 -227 7 -8 8 -28 4 -49 -5 -29 -3 -36 9 -36 25 0 29
31 17 140 -5 56 -10 138 -10 182 0 80 0 81 -40 124 -28 30 -40 53 -40 73 0 16
-16 59 -35 96 -20 36 -38 86 -42 110 -7 57 -69 160 -167 280 -44 53 -87 110
-96 128 -12 21 -30 35 -59 45 -22 7 -46 22 -51 32 -11 20 -94 70 -116 70 -8 0
-14 -9 -14 -20z"/>
<path d="M3370 1135 c0 -13 486 -15 4315 -15 3829 0 4315 2 4315 15 0 13 -486
15 -4315 15 -3829 0 -4315 -2 -4315 -15z"/>
<path d="M880 929 c-14 -11 -41 -28 -61 -39 -50 -27 -189 -166 -189 -190 0
-34 31 -41 115 -27 l77 14 39 -33 c49 -40 78 -76 113 -137 28 -49 69 -78 86
-61 5 5 14 48 19 94 8 71 6 102 -10 189 -24 121 -37 150 -82 185 -41 31 -73
33 -107 5z m98 -56 c31 -44 52 -102 62 -171 9 -65 3 -202 -10 -202 -4 0 -26
32 -50 72 -40 68 -70 100 -129 141 -21 14 -37 16 -83 11 -32 -3 -58 -4 -58 -1
0 10 155 139 190 157 47 25 55 25 78 -7z"/>
<path d="M4620 925 c-52 -16 -107 -65 -126 -112 -19 -45 -18 -138 3 -180 20
-44 74 -84 178 -133 130 -61 167 -121 131 -215 -42 -110 -175 -122 -236 -22
-11 18 -20 43 -20 56 0 23 -2 23 -52 17 -29 -4 -55 -9 -57 -12 -3 -2 3 -29 13
-60 33 -106 121 -174 226 -174 144 0 240 102 240 255 -1 127 -39 178 -191 249
-116 54 -154 92 -145 145 15 96 146 127 210 50 l26 -30 40 22 c22 13 40 29 40
36 0 7 -19 33 -42 56 -65 64 -143 81 -238 52z"/>
<path d="M7297 929 c-130 -31 -239 -136 -288 -281 -18 -53 -20 -79 -17 -160 4
-88 9 -106 42 -172 44 -91 120 -164 204 -197 45 -19 77 -23 152 -24 86 0 101
3 162 32 293 138 316 574 41 751 -83 53 -200 74 -296 51z m220 -127 c177 -91
218 -355 78 -510 -140 -156 -371 -119 -467 75 -29 60 -33 77 -33 148 1 88 26
159 79 223 80 94 229 122 343 64z"/>
<path d="M8400 925 c-113 -32 -215 -126 -262 -242 -19 -49 -23 -77 -23 -173 0
-109 2 -119 32 -182 105 -223 350 -303 545 -179 93 59 158 188 158 312 l0 59
-150 0 -150 0 0 -50 0 -50 96 0 96 0 -6 -25 c-13 -50 -26 -75 -62 -115 -54
-59 -106 -84 -179 -84 -106 -1 -203 72 -257 190 -33 74 -32 190 3 264 36 77
80 124 146 156 107 53 225 32 312 -55 23 -23 45 -41 49 -41 5 0 21 13 36 29
35 37 29 59 -28 106 -100 82 -238 113 -356 80z"/>
<path d="M4950 870 l0 -50 90 0 90 0 0 -355 0 -355 50 0 50 0 0 355 0 355 90
0 90 0 0 50 0 50 -230 0 -230 0 0 -50z"/>
<path d="M5462 618 c4 -338 8 -359 75 -437 48 -56 103 -83 184 -89 123 -9 216
45 270 154 24 48 24 54 27 362 l3 312 -50 0 -49 0 -4 -292 c-4 -325 -7 -339
-71 -395 -87 -76 -223 -37 -261 74 -13 38 -16 97 -16 330 l0 283 -56 0 -55 0
3 -302z"/>
<path d="M6140 516 l0 -406 124 0 c230 0 355 67 428 230 29 63 37 235 15 311
-33 111 -113 196 -225 240 -46 18 -84 23 -199 27 l-143 4 0 -406z m301 275
c66 -25 123 -78 153 -141 16 -35 21 -64 21 -135 0 -78 -4 -97 -28 -147 -46
-94 -136 -146 -268 -155 l-79 -6 0 308 0 308 73 -6 c39 -3 97 -15 128 -26z"/>
<path d="M6810 515 l0 -405 50 0 50 0 0 405 0 405 -50 0 -50 0 0 -405z"/>
<path d="M8930 515 l0 -405 50 0 50 0 0 190 0 190 175 0 175 0 0 -190 0 -190
55 0 55 0 0 405 0 405 -55 0 -55 0 0 -160 0 -160 -175 0 -175 0 0 160 0 160
-50 0 -50 0 0 -405z"/>
<path d="M9610 515 l0 -405 50 0 50 0 0 405 0 405 -50 0 -50 0 0 -405z"/>
<path d="M9840 514 l0 -406 143 4 c150 4 180 12 235 62 62 55 82 177 43 261
-20 45 -82 105 -109 105 -16 1 -16 1 1 11 32 19 57 84 57 151 -1 152 -86 218
-282 218 l-88 0 0 -406z m203 297 c61 -23 89 -94 65 -166 -15 -46 -52 -70
-120 -79 l-48 -6 0 130 0 130 39 0 c22 0 51 -4 64 -9z m64 -361 c70 -30 94
-111 53 -178 -26 -43 -74 -62 -155 -62 l-65 0 0 135 0 136 63 -7 c34 -3 81
-14 104 -24z"/>
<path d="M10380 515 l0 -405 165 0 165 0 0 50 0 50 -115 0 -115 0 0 355 0 355
-50 0 -50 0 0 -405z"/>
<path d="M10760 515 l0 -405 55 0 55 0 0 405 0 405 -55 0 -55 0 0 -405z"/>
<path d="M1552 351 c-22 -17 -48 -42 -59 -56 -10 -15 -39 -52 -65 -82 -27 -31
-48 -62 -48 -68 0 -27 32 -39 101 -37 83 3 114 -11 159 -68 31 -39 34 -40 92
-40 l60 0 -6 27 c-3 16 -11 75 -17 133 -13 118 -17 130 -67 183 -47 48 -91 50
-150 8z m142 -61 c29 -49 59 -270 37 -270 -4 0 -35 27 -67 60 l-59 59 -82 7
c-46 4 -83 11 -83 15 0 10 87 98 139 141 48 40 88 35 115 -12z"/>
</g>
</svg>
